<svg width="1136" height="16" viewBox="0 0 1136 16" fill="none" xmlns="http://www.w3.org/2000/svg">
<path d="M4 11.3432C48.8411 11.3432 93.5752 9.87459 138.545 9.87459C160.957 9.87459 182.329 11.3432 204.471 11.3432C231.725 11.3432 257.75 9.69689 284.838 6.61093C305.526 4.25414 325.949 4 346.848 4C357.646 4 390.953 6.07517 401.703 6.61093C409.889 7.01887 430.66 8.83255 439.339 9.87459C450.182 11.1763 460.73 11.3432 467.277 11.3432C496.989 11.3432 526.597 11.1085 556.212 9.87459C604.362 7.86835 653.221 8.40594 701.69 8.40594C728.343 8.40594 744.878 8.40594 771.532 8.40594C777.917 8.40594 801.097 11.3432 807.959 11.3432C820.687 11.3432 825.138 11.3432 837.866 11.3432C861.633 11.3432 885.068 5.46865 908.687 5.46865C938.55 5.46865 968.412 5.46865 998.275 5.46865C1022.6 5.46865 1046.64 6.9373 1070.97 6.9373C1086.8 6.9373 1115.94 6.9373 1131.8 6.9373" stroke="#FD4525" stroke-width="8" stroke-linecap="round"/>
</svg>
