<svg width="263" height="243" viewBox="0 0 263 243" fill="none" xmlns="http://www.w3.org/2000/svg">
<path d="M49.2906 80.6091C54.6451 84.3598 77.9949 97.7977 89.0005 104.048C78.9613 108.307 56.863 117.678 48.7833 121.082C38.6836 125.337 -2.24675 147.853 2.36012 158.321C6.967 168.79 39.488 159.824 46.6957 158.321C52.4618 157.119 79.9625 147.253 92.992 142.47C89.6619 151.356 82.3084 171.397 79.5356 180.473C76.0695 191.818 65.6713 234.943 77.7006 240.451C89.7298 245.96 108.895 208.422 113.788 198.018C117.703 189.694 130.532 157.518 136.458 142.47C140.301 152.947 148.625 174.897 151.17 178.876C154.351 183.849 166.877 214.685 179.403 211.9C191.928 209.115 183.646 177.881 180.794 169.128C178.513 162.125 168.047 141.143 163.099 131.528C171.582 131.594 191.054 131.687 201.074 131.528C213.6 131.329 260.417 128.061 260.988 119.774C261.559 111.487 241.997 105.487 228.003 103.486C216.808 101.886 193.767 101.105 183.646 100.914C188.299 96.4521 199.273 85.8987 205.942 79.3803C214.279 71.2325 246.851 36.313 242.392 31.657C237.933 27.0011 213.31 44.0729 205.942 49.8928C200.048 54.5487 170.819 79.3114 156.941 91.1108C165.322 63.0492 179.099 5.98001 167.15 2.19647C155.201 -1.58708 129.407 50.2155 118.003 76.5897C109.302 70.1908 88.7776 55.6518 76.2844 48.6871C60.6678 39.9812 30.1041 27.9266 21.6266 39.7577C13.149 51.5888 42.5974 75.9206 49.2906 80.6091Z" stroke="#333333" stroke-width="3"/>
</svg>
