<svg width="88" height="80" viewBox="0 0 88 80" fill="none" xmlns="http://www.w3.org/2000/svg">
<path d="M16.0678 26.3127C17.8871 27.5681 25.8207 32.0662 29.56 34.1583C26.149 35.5841 18.6407 38.7206 15.8955 39.86C12.4639 41.2843 -1.44291 48.8212 0.122358 52.3252C1.68763 55.8292 12.7372 52.8281 15.1862 52.3252C17.1453 51.9228 26.4892 48.6202 30.9162 47.0191C29.7847 49.9935 27.2863 56.7018 26.3441 59.7399C25.1665 63.5374 21.6335 77.9726 25.7207 79.8164C29.8078 81.6601 36.3196 69.0952 37.9821 65.6126C39.3122 62.8265 43.6712 52.0561 45.6844 47.0191C46.9905 50.5263 49.8187 57.8734 50.6833 59.2053C51.7642 60.87 56.02 71.1916 60.2758 70.2593C64.5317 69.3271 61.7176 58.8723 60.7487 55.9423C59.9736 53.5983 56.4176 46.5752 54.7365 43.3567C57.6188 43.3789 64.2344 43.4099 67.6391 43.3567C71.8949 43.2901 87.8018 42.1962 87.9958 39.4223C88.1899 36.6485 81.5433 34.6399 76.7887 33.9703C72.9851 33.4347 65.1564 33.1731 61.7176 33.1093C63.2986 31.6158 67.0271 28.0832 69.2931 25.9014C72.1257 23.174 83.1926 11.4855 81.6775 9.92704C80.1624 8.36857 71.7964 14.083 69.2931 16.0311C67.2906 17.5895 57.3592 25.8783 52.6439 29.8279C55.4917 20.4349 60.1725 1.33222 56.1127 0.0657632C52.0529 -1.20069 43.2887 16.1391 39.4141 24.9673C36.4579 22.8254 29.4843 17.9588 25.2395 15.6275C19.9335 12.7134 9.5489 8.67835 6.66849 12.6385C3.78808 16.5987 13.7937 24.7433 16.0678 26.3127Z" fill="#FD4525"/>
</svg>
