<svg width="917" height="847" viewBox="0 0 917 847" fill="none" xmlns="http://www.w3.org/2000/svg">
<path d="M169.414 279.455C188.256 292.646 270.423 339.905 309.151 361.886C273.824 376.866 196.061 409.82 167.628 421.792C132.088 436.756 -11.9441 515.942 4.26725 552.757C20.4786 589.572 134.919 558.041 160.282 552.757C180.573 548.53 277.347 513.831 323.197 497.009C311.478 528.26 285.602 598.741 275.844 630.66C263.647 670.559 227.057 822.223 269.387 841.595C311.718 860.966 379.159 728.953 396.379 692.362C410.154 663.09 455.3 549.93 476.151 497.009C489.677 533.857 518.969 611.051 527.924 625.043C539.118 642.534 583.195 750.978 627.273 741.183C671.35 731.389 642.205 621.545 632.17 590.761C624.143 566.134 587.313 492.345 569.902 458.529C599.754 458.762 668.272 459.089 703.534 458.529C747.611 457.83 912.357 446.337 914.367 417.193C916.377 388.049 847.538 366.946 798.296 359.911C758.902 354.283 677.821 351.535 642.205 350.865C658.579 335.173 697.195 298.058 720.664 275.134C750.001 246.479 864.621 123.673 848.929 107.299C833.237 90.9249 746.59 150.963 720.664 171.431C699.924 187.805 597.066 274.892 548.229 316.388C577.724 217.7 626.203 16.9971 584.156 3.69094C542.108 -9.61517 451.338 172.566 411.209 265.32C380.592 242.816 308.367 191.685 264.404 167.191C209.45 136.574 101.897 94.1796 72.0651 135.788C42.2329 177.396 145.861 262.967 169.414 279.455Z" stroke="#FD4525" stroke-width="5"/>
</svg>
