<svg width="39" height="36" viewBox="0 0 39 36" fill="none" xmlns="http://www.w3.org/2000/svg">
<path d="M7.7558 12.1829C8.52073 12.7165 11.8564 14.6281 13.4286 15.5173C11.9945 16.1232 8.83757 17.4563 7.68332 17.9405C6.24051 18.5458 0.393321 21.749 1.05145 23.2382C1.70957 24.7274 6.35543 23.4519 7.3851 23.2382C8.20883 23.0672 12.1375 21.6636 13.9989 20.9831C13.5231 22.2473 12.4726 25.0983 12.0765 26.3894C11.5814 28.0034 10.0959 34.1384 11.8144 34.922C13.5328 35.7056 16.2707 30.3655 16.9698 28.8853C17.529 27.7012 19.3618 23.1238 20.2082 20.9831C20.7573 22.4737 21.9465 25.5962 22.31 26.1622C22.7645 26.8698 24.5539 31.2564 26.3432 30.8602C28.1326 30.464 26.9494 26.0207 26.5421 24.7755C26.2162 23.7793 24.721 20.7945 24.0142 19.4266C25.2261 19.436 28.0077 19.4492 29.4392 19.4266C31.2285 19.3983 37.9167 18.9334 37.9983 17.7545C38.0798 16.5756 35.2852 15.7219 33.2862 15.4374C31.6869 15.2097 28.3953 15.0986 26.9494 15.0715C27.6142 14.4367 29.1818 12.9354 30.1346 12.0081C31.3256 10.849 35.9787 5.88134 35.3417 5.21899C34.7047 4.55664 31.1871 6.98526 30.1346 7.8132C29.2926 8.47555 25.1169 11.9983 23.1344 13.6768C24.3318 9.68482 26.2998 1.56619 24.5928 1.02795C22.8859 0.489705 19.2009 7.85911 17.5718 11.6111C16.3289 10.7008 13.3968 8.63248 11.6121 7.64168C9.38111 6.40318 5.01488 4.6883 3.8038 6.37138C2.59272 8.05447 6.79963 11.5159 7.7558 12.1829Z" fill="#FD4525" stroke="#FD4525" stroke-width="0.251322"/>
</svg>
