<svg width="110" height="33" viewBox="0 0 110 33" fill="none" xmlns="http://www.w3.org/2000/svg">
<path d="M73.5608 1.0166L64.584 31.3024H58.9626L52.6004 8.38107L45.846 31.3024L40.2682 31.346L31.6836 1.0166H36.9564L43.2314 25.681L50.0294 1.0166H55.6072L61.9258 25.5503L68.2445 1.0166H73.5608Z" fill="#FD4525"/>
<path d="M16.2197 31.6051C13.4018 31.6051 10.8017 30.9515 8.4195 29.6442C6.06636 28.3078 4.19256 26.4631 2.79811 24.1099C1.4327 21.7277 0.75 19.055 0.75 16.0918C0.75 13.1286 1.4327 10.4704 2.79811 8.11727C4.19256 5.76412 6.06636 3.9339 8.4195 2.6266C10.8017 1.29025 13.4018 0.62207 16.2197 0.62207C19.0667 0.62207 21.6668 1.29025 24.02 2.6266C26.4022 3.9339 28.276 5.76412 29.6414 8.11727C31.0068 10.4704 31.6895 13.1286 31.6895 16.0918C31.6895 19.055 31.0068 21.7277 29.6414 24.1099C28.276 26.4631 26.4022 28.3078 24.02 29.6442C21.6668 30.9515 19.0667 31.6051 16.2197 31.6051ZM16.2197 27.291C18.2243 27.291 20.0109 26.8407 21.5797 25.9401C23.1484 25.0105 24.3686 23.7032 25.2401 22.0182C26.1407 20.3042 26.591 18.3287 26.591 16.0918C26.591 13.8549 26.1407 11.8939 25.2401 10.2089C24.3686 8.52398 23.1484 7.23121 21.5797 6.33062C20.0109 5.43004 18.2243 4.97974 16.2197 4.97974C14.2152 4.97974 12.4286 5.43004 10.8598 6.33062C9.29104 7.23121 8.05636 8.52398 7.15578 10.2089C6.28424 11.8939 5.84848 13.8549 5.84848 16.0918C5.84848 18.3287 6.28424 20.3042 7.15578 22.0182C8.05636 23.7032 9.29104 25.0105 10.8598 25.9401C12.4286 26.8407 14.2152 27.291 16.2197 27.291Z" fill="#FD4525"/>
<path d="M71.543 1.6709C74.8849 13.0958 75.9556 19.582 76.6612 31.2373C78.4398 21.8668 81.5209 2.70737 90.7716 2.70737C103.924 2.70737 105.798 26.5153 97.9771 29.6111C92.66 31.7157 89.4743 27.4041 92.0301 23.3382C94.5859 19.2722 107.311 17.9177 107.311 31.2373" stroke="#FD4525" stroke-width="4.1591"/>
</svg>
