<svg width="109" height="32" viewBox="0 0 109 32" fill="none" xmlns="http://www.w3.org/2000/svg">
<path d="M72.8108 0.500977L63.834 30.7868H58.2126L51.8504 7.86544L45.096 30.7868L39.5182 30.8304L30.9336 0.500977H36.2064L42.4814 25.1654L49.2794 0.500977H54.8572L61.1758 25.0347L67.4945 0.500977H72.8108Z" fill="white"/>
<path d="M15.4697 31.0895C12.6518 31.0895 10.0517 30.4358 7.6695 29.1285C5.31636 27.7922 3.44256 25.9474 2.04811 23.5943C0.682702 21.2121 0 18.5394 0 15.5762C0 12.613 0.682702 9.95478 2.04811 7.60164C3.44256 5.2485 5.31636 3.41828 7.6695 2.11098C10.0517 0.774622 12.6518 0.106445 15.4697 0.106445C18.3167 0.106445 20.9168 0.774622 23.27 2.11098C25.6522 3.41828 27.526 5.2485 28.8914 7.60164C30.2568 9.95478 30.9395 12.613 30.9395 15.5762C30.9395 18.5394 30.2568 21.2121 28.8914 23.5943C27.526 25.9474 25.6522 27.7922 23.27 29.1285C20.9168 30.4358 18.3167 31.0895 15.4697 31.0895ZM15.4697 26.7754C17.4743 26.7754 19.2609 26.3251 20.8297 25.4245C22.3984 24.4949 23.6186 23.1876 24.4901 21.5026C25.3907 19.7886 25.841 17.8131 25.841 15.5762C25.841 13.3392 25.3907 11.3783 24.4901 9.69332C23.6186 8.00836 22.3984 6.71558 20.8297 5.815C19.2609 4.91441 17.4743 4.46412 15.4697 4.46412C13.4652 4.46412 11.6786 4.91441 10.1098 5.815C8.54104 6.71558 7.30636 8.00836 6.40578 9.69332C5.53424 11.3783 5.09848 13.3392 5.09848 15.5762C5.09848 17.8131 5.53424 19.7886 6.40578 21.5026C7.30636 23.1876 8.54104 24.4949 10.1098 25.4245C11.6786 26.3251 13.4652 26.7754 15.4697 26.7754Z" fill="white"/>
<path d="M70.793 1.15552C74.1349 12.5804 75.2056 19.0666 75.9112 30.722C77.6898 21.3515 80.7709 2.19199 90.0216 2.19199C103.174 2.19199 105.048 26 97.2271 29.0957C91.91 31.2004 88.7243 26.8888 91.2801 22.8228C93.8359 18.7568 106.561 17.4023 106.561 30.722" stroke="white" stroke-width="4.1591"/>
</svg>
